<svg id="Layer_1" data-name="Layer 1" xmlns="http://www.w3.org/2000/svg" width="362.8644" height="362.8644" viewBox="0 0 362.8644 362.8644"><defs><style>.cls-1{fill:#417067;stroke:#fff;stroke-miterlimit:10;}.cls-2{font-size:13px;font-family:EBGaramond-Regular, EB Garamond;}.cls-2,.cls-7{fill:#fff;}.cls-3{letter-spacing:-0.025em;}.cls-4{letter-spacing:-0.04em;}.cls-5{letter-spacing:-0.015em;}.cls-6{letter-spacing:-0.025em;}</style></defs><circle class="cls-1" cx="181.4322" cy="181.4322" r="180.9322"/><line class="cls-1" x1="181.4322" y1="0.5" x2="181.4322" y2="181.4322"/><line class="cls-1" x1="181.4322" y1="181.4322" x2="9.3872" y2="125.4233"/><line class="cls-1" x1="181.4322" y1="181.4322" x2="75.2644" y2="327.9411"/><line class="cls-1" x1="181.4322" y1="181.4322" x2="288.1042" y2="327.5744"/><line class="cls-1" x1="181.566" y1="181.6156" x2="352.9231" y2="123.5362"/><text class="cls-2" transform="translate(56.9992 100.1177)">Social and Emotional<tspan x="19.0508" y="15.6001">De</tspan><tspan class="cls-3" x="33.9224" y="15.6001">v</tspan><tspan x="39.2915" y="15.6001">elopment </tspan></text><text class="cls-2" transform="translate(195.1145 100.1177)">P<tspan class="cls-4" x="7.1758" y="0">h</tspan><tspan x="13.3506" y="0">ysi</tspan><tspan class="cls-5" x="26.4282" y="0">c</tspan><tspan x="31.5244" y="0">al De</tspan><tspan class="cls-6" x="57.3032" y="0">v</tspan><tspan x="62.6719" y="0">elopment</tspan><tspan x="27.1309" y="15.6001">and Health</tspan></text><path class="cls-7" d="M495.04,333.1279c-.0693-.03-.1035-.0713-.1035-.123,0-.1123.1426-.2129.4287-.2988a2.0043,2.0043,0,0,0,.65-.3321,1.6661,1.6661,0,0,0,.4678-.6689q.6885-1.5864,1.2021-2.88t1.2286-3.2305a3.3372,3.3372,0,0,0,.1816-.7539c.0264-.0088.0889-.0283.1885-.0586a.9931.9931,0,0,0,.28-.1367.5033.5033,0,0,0,.1621-.2334q.0585-.1568.0849-.208a.03.03,0,0,1,.0323-.0068.0778.0778,0,0,1,.0322.0195,1.1669,1.1669,0,0,1,.0459.1426,1.0319,1.0319,0,0,0,.0449.1435q.9624,3.0294,2.3144,6.9414a2.2411,2.2411,0,0,0,.5459.9688,1.5628,1.5628,0,0,0,.7667.332.7469.7469,0,0,1,.3193.1231.2326.2326,0,0,1,.11.1757c0,.086-.1259.13-.3769.13l-.7022-.0263q-.7279-.0513-1.1054-.0518l-1.3643.0127q-.3779,0-.3779-.1553c0-.0527.042-.1025.124-.15a.842.842,0,0,1,.3057-.0966q.7924-.13.7929-.585a10.9036,10.9036,0,0,0-.5068-2.1065.1636.1636,0,0,0-.0977-.1171.8762.8762,0,0,0-.2539-.0254h-2.457c-.0957,0-.1689.0771-.2207.2334q-.1436.4159-.3379,1.0859a5.1143,5.1143,0,0,0-.1953.7861.6093.6093,0,0,0,.2148.4678,1.1978,1.1978,0,0,0,.5391.2735,1.7463,1.7463,0,0,1,.332.1171.1586.1586,0,0,1,.0977.1426c0,.0957-.126.1436-.377.1436-.1562,0-.2861-.0049-.3906-.0137l-.793-.0127c-.1474,0-.31.0068-.4873.0195s-.31.02-.3964.02a6.5407,6.5407,0,0,1-.6758.039A.69.69,0,0,1,495.04,333.1279Zm5.33-3.6855a.5393.5393,0,0,0,.13-.0127c.0352-.0088.0518-.0264.0518-.0518l-.0254-.13-1.0147-3.1728c-.0517-.1553-.0908-.2334-.1162-.2334-.0176,0-.0527.0732-.1045.2207l-1.1826,3.1855-.0264.1036a.0705.0705,0,0,0,.0586.0781,1.1623,1.1623,0,0,0,.2149.0127Z" transform="translate(-245.4264 -121.3305)"/><path class="cls-7" d="M504.2051,336.6963a.1493.1493,0,0,1,.0713-.1358,1.019,1.019,0,0,1,.2275-.0976,1.9659,1.9659,0,0,0,.4219-.1758.3427.3427,0,0,0,.1367-.3183v-6.5909a1.3692,1.3692,0,0,0-.1553-.5527.653.653,0,0,0-.4424-.3965.12.12,0,0,1-.0781-.0586.217.217,0,0,1-.0263-.11c0-.0869.03-.1387.0917-.1563a6.337,6.337,0,0,0,1.001-.3056c.2852-.1172.4551-.1885.5069-.2139l.0254-.0137c.0175,0,.0351.0137.0527.0391a.1475.1475,0,0,1,.0254.0781l-.0254.3379a2.6575,2.6575,0,0,0-.0391.4424.2642.2642,0,0,0,.0127.1172,2.4405,2.4405,0,0,1,.501-.3448,5.0346,5.0346,0,0,1,.793-.3574,2.4023,2.4023,0,0,1,.8125-.1562,1.874,1.874,0,0,1,1.124.3515,2.28,2.28,0,0,1,.748.916,2.8212,2.8212,0,0,1,.26,1.19,3.0823,3.0823,0,0,1-.3906,1.4883,3.2143,3.2143,0,0,1-1.0655,1.17,2.6,2.6,0,0,1-1.4687.4492,2.5607,2.5607,0,0,1-.7022-.124,1.5392,1.5392,0,0,1-.5986-.292c-.0176,0-.03.0859-.039.26s-.0127.3076-.0127.4033v2.4307a.3161.3161,0,0,0,.1689.2919,1.358,1.358,0,0,0,.3447.1436q.1758.0455.24.0586a1.0212,1.0212,0,0,1,.2275.0976.1493.1493,0,0,1,.0713.1358c0,.0781-.0947.1172-.2852.1172a4.9718,4.9718,0,0,1-.65-.0391c-.2255-.0176-.416-.0254-.5722-.0254-.1387,0-.3037.0078-.4942.0254a3.0324,3.0324,0,0,1-.5459.0391Q504.2051,336.8135,504.2051,336.6963Zm4.0234-4.0361a1.9014,1.9014,0,0,0,.6885-.7471,2.6519,2.6519,0,0,0,.293-1.3135,2.3075,2.3075,0,0,0-.5655-1.8008,1.697,1.697,0,0,0-1.8271-.3633,2.352,2.352,0,0,0-.5713.292c-.1563.1133-.2344.1993-.2344.26q0,.5859-.0263,1.3652-.0132.2609-.0127.5977a2.1194,2.1194,0,0,0,.832,1.6709,1.2124,1.2124,0,0,0,.7148.2666A1.4673,1.4673,0,0,0,508.2285,332.66Z" transform="translate(-245.4264 -121.3305)"/><path class="cls-7" d="M510.9521,336.6963a.15.15,0,0,1,.0713-.1358,1.0224,1.0224,0,0,1,.2276-.0976,1.9682,1.9682,0,0,0,.4219-.1758.3429.3429,0,0,0,.1367-.3183v-6.5909a1.3692,1.3692,0,0,0-.1553-.5527.6532.6532,0,0,0-.4424-.3965.12.12,0,0,1-.0781-.0586.217.217,0,0,1-.0264-.11c0-.0869.03-.1387.0918-.1563a6.337,6.337,0,0,0,1.001-.3056c.2852-.1172.4551-.1885.5068-.2139l.0254-.0137c.0176,0,.0352.0137.0528.0391a.1473.1473,0,0,1,.0253.0781l-.0253.3379a2.6575,2.6575,0,0,0-.0391.4424.2642.2642,0,0,0,.0127.1172,2.4405,2.4405,0,0,1,.501-.3448,5.0334,5.0334,0,0,1,.7929-.3574,2.4032,2.4032,0,0,1,.8125-.1562,1.8741,1.8741,0,0,1,1.1241.3515,2.28,2.28,0,0,1,.748.916,2.8212,2.8212,0,0,1,.26,1.19,3.0813,3.0813,0,0,1-.3907,1.4883,3.2132,3.2132,0,0,1-1.0654,1.17,2.6005,2.6005,0,0,1-1.4687.4492,2.5607,2.5607,0,0,1-.7022-.124,1.5392,1.5392,0,0,1-.5986-.292c-.0176,0-.03.0859-.0391.26s-.0127.3076-.0127.4033v2.4307a.3162.3162,0,0,0,.169.2919,1.358,1.358,0,0,0,.3447.1436q.1758.0455.24.0586a1.0224,1.0224,0,0,1,.2276.0976.15.15,0,0,1,.0713.1358c0,.0781-.0948.1172-.2852.1172a4.97,4.97,0,0,1-.65-.0391c-.2256-.0176-.416-.0254-.5723-.0254-.1386,0-.3037.0078-.4941.0254a3.0331,3.0331,0,0,1-.5459.0391Q510.9522,336.8135,510.9521,336.6963Zm4.0235-4.0361a1.9021,1.9021,0,0,0,.6885-.7471,2.652,2.652,0,0,0,.2929-1.3135,2.3075,2.3075,0,0,0-.5654-1.8008,1.697,1.697,0,0,0-1.8271-.3633,2.3483,2.3483,0,0,0-.5713.292c-.1563.1133-.2344.1993-.2344.26q0,.5859-.0264,1.3652-.0132.2609-.0127.5977a2.12,2.12,0,0,0,.8321,1.6709,1.2122,1.2122,0,0,0,.7148.2666A1.4676,1.4676,0,0,0,514.9756,332.66Z" transform="translate(-245.4264 -121.3305)"/><path class="cls-7" d="M517.8291,333.0049a.1267.1267,0,0,1,.0645-.124,1.7784,1.7784,0,0,1,.2343-.084q.4937-.1171.4942-.4942v-2.7949a1.4517,1.4517,0,0,0-.1172-.6308.5672.5672,0,0,0-.416-.3057.157.157,0,0,1-.0909-.0645.1721.1721,0,0,1-.039-.1045.1488.1488,0,0,1,.039-.0976.1775.1775,0,0,1,.0782-.0576,6.456,6.456,0,0,0,1.2871-.6377.4885.4885,0,0,1,.1943-.0908c.044,0,.0654.03.0654.0908q0,.3516-.039.9756c0,.0175.0088.0254.0264.0254a2.9576,2.9576,0,0,1,.7275-.6368,1.4815,1.4815,0,0,1,.7666-.247.7929.7929,0,0,1,.4492.1172.35.35,0,0,1,.1748.2988.7858.7858,0,0,1-.1621.4424.4442.4442,0,0,1-.3447.2334.9014.9014,0,0,1-.3643-.1172c-.0254-.0078-.084-.03-.1748-.0645a.7011.7011,0,0,0-.24-.0517.89.89,0,0,0-.6377.247,1.1338,1.1338,0,0,0-.26.8448v2.6259a.3263.3263,0,0,0,.169.2793,2.0359,2.0359,0,0,0,.5205.2149,1.3933,1.3933,0,0,1,.2265.0908.1269.1269,0,0,1,.0723.1172c0,.0957-.0869.1426-.2607.1426a4.1118,4.1118,0,0,1-.61-.0391c-.208-.0166-.3818-.0254-.52-.0254s-.3027.0088-.4941.0254a3.123,3.123,0,0,1-.5586.0391C517.915,333.1475,517.8291,333.1006,517.8291,333.0049Z" transform="translate(-245.4264 -121.3305)"/><path class="cls-7" d="M523.5293,332.9531a2.4926,2.4926,0,0,1-.9365-.9365,2.6332,2.6332,0,0,1-.3438-1.3389,2.8679,2.8679,0,0,1,.3828-1.4043,3.1481,3.1481,0,0,1,1.04-1.1181,2.5578,2.5578,0,0,1,1.4238-.4287,2.6265,2.6265,0,0,1,1.3516.3574,2.6833,2.6833,0,0,1,.9687.9619,2.5023,2.5023,0,0,1,.3574,1.2939,3.21,3.21,0,0,1-.3379,1.4561,2.6472,2.6472,0,0,1-1.0009,1.085,2.9782,2.9782,0,0,1-1.5987.41A2.5954,2.5954,0,0,1,523.5293,332.9531Zm2.918-.7676a3.4832,3.4832,0,0,0,.2607-1.5341,3.2237,3.2237,0,0,0-.2344-1.209,2.4452,2.4452,0,0,0-.65-.9492,1.4017,1.4017,0,0,0-.9482-.3633,1.6381,1.6381,0,0,0-.65.1172,1.2535,1.2535,0,0,0-.4941.4023,1.75,1.75,0,0,0-.3252.7344,4.9056,4.9056,0,0,0-.0908.9951,3.24,3.24,0,0,0,.2343,1.2285,2.4167,2.4167,0,0,0,.6436.9356,1.5031,1.5031,0,0,0,2.2549-.3575Z" transform="translate(-245.4264 -121.3305)"/><path class="cls-7" d="M529.0225,333.1152a1.4819,1.4819,0,0,1-.41-.4423.9646.9646,0,0,1-.1621-.5.91.91,0,0,1,.2139-.6377,2.0552,2.0552,0,0,1,.7089-.4414l1.3262-.5459a.7311.7311,0,0,0,.2988-.1827.7781.7781,0,0,0,.0655-.3379l.0254-.832a.822.822,0,0,0-.1953-.5908.7167.7167,0,0,0-.5713-.2412,1.2411,1.2411,0,0,0-.3907.0654,1.0258,1.0258,0,0,0-.3242.169.437.437,0,0,0-.1308.3769l.0136.2344c0,.0693-.11.1621-.332.2793a1.2277,1.2277,0,0,1-.5264.1758.152.152,0,0,1-.1035-.0332.1034.1034,0,0,1-.039-.084.914.914,0,0,1,.1367-.4492,1.6723,1.6723,0,0,1,.3828-.4483,3.9987,3.9987,0,0,1,.9951-.6631,2.3034,2.3034,0,0,1,.9424-.26,1.0056,1.0056,0,0,1,.7734.332,1.1257,1.1257,0,0,1,.292.8252l-.0644,3.12a.6477.6477,0,0,0,.1172.4414.416.416,0,0,0,.3505.169.6893.6893,0,0,0,.4805-.1426c.044-.043.0781-.0655.1045-.0655a.1345.1345,0,0,1,.1426.1436.3462.3462,0,0,1-.0391.1367.5237.5237,0,0,1-.1035.1494,1.7848,1.7848,0,0,1-.4482.3311,1,1,0,0,1-.4493.124,1.0582,1.0582,0,0,1-.9482-.6767h-.0391a3.3636,3.3636,0,0,1-.8193.5136,2.0732,2.0732,0,0,1-.8057.1631A.8151.8151,0,0,1,529.0225,333.1152Zm1.8457-.7607a.497.497,0,0,0,.1172-.1953,1.42,1.42,0,0,0,.0517-.3379l.0264-.6367v-.0782a.3132.3132,0,0,0-.0264-.1494.0961.0961,0,0,0-.0908-.0449.9193.9193,0,0,0-.2608.0645,2.8821,2.8821,0,0,0-.9355.4941.72.72,0,0,0-.2861.5068.67.67,0,0,0,.1884.5069.6222.6222,0,0,0,.4483.1826A1.0438,1.0438,0,0,0,530.8682,332.3545Z" transform="translate(-245.4264 -121.3305)"/><path class="cls-7" d="M534.748,332.9717a2.3384,2.3384,0,0,1-.831-.9092,2.7239,2.7239,0,0,1-.3057-1.2939,3.1976,3.1976,0,0,1,.37-1.5274,2.96,2.96,0,0,1,.9942-1.1055,2.5848,2.5848,0,0,1,2.86.0459.32.32,0,0,1,.1563.2471.5042.5042,0,0,1-.1953.3506.5549.5549,0,0,1-.3643.1826.2286.2286,0,0,1-.13-.0459c-.0429-.03-.0908-.0625-.1425-.0976a5.09,5.09,0,0,0-.6631-.4288,1.2606,1.2606,0,0,0-.5586-.1816,1.1969,1.1969,0,0,0-1.0342.5977,2.7457,2.7457,0,0,0-.3965,1.5468,2.3543,2.3543,0,0,0,.26,1.0987,1.9907,1.9907,0,0,0,.7158.7861,1.8354,1.8354,0,0,0,1.001.2861,1.57,1.57,0,0,0,.6494-.123,2.06,2.06,0,0,0,.585-.4356.1871.1871,0,0,1,.13-.0654.125.125,0,0,1,.1045.0518.21.21,0,0,1,.0391.1308.7862.7862,0,0,1-.1953.4024,1.9822,1.9822,0,0,1-.793.6113,2.6917,2.6917,0,0,1-1.0791.208A2.1589,2.1589,0,0,1,534.748,332.9717Z" transform="translate(-245.4264 -121.3305)"/><path class="cls-7" d="M538.6943,333.0049a.1289.1289,0,0,1,.0645-.1172,1.1392,1.1392,0,0,1,.2344-.0908,1.2662,1.2662,0,0,0,.4033-.1885.444.444,0,0,0,.1553-.3447V325.751q0-.832-.5713-.9365c-.0782-.0166-.1172-.0782-.1172-.1817a.1516.1516,0,0,1,.1035-.1562q1.0269-.3252,1.4434-.5069a.1932.1932,0,0,1,.0781-.0263.08.08,0,0,1,.0908.0908,3.7,3.7,0,0,1-.0586.3965,9.9337,9.9337,0,0,0-.0586,1.372v2.2618a1.6632,1.6632,0,0,0,.0195.2929.6356.6356,0,0,0,.0713.1885,3.4666,3.4666,0,0,1,1.9766-.8193,1.3253,1.3253,0,0,1,1.06.5068,1.9066,1.9066,0,0,1,.4218,1.2617v2.73q0,.4161.5332.5723a.7952.7952,0,0,1,.2276.084.14.14,0,0,1,.0713.124c0,.0957-.0869.1426-.26.1426a3.17,3.17,0,0,1-.5459-.0391c-.1738-.0166-.3291-.0254-.4678-.0254s-.2949.0088-.4687.0254a3.0331,3.0331,0,0,1-.5459.0391c-.1729,0-.26-.0469-.26-.1426a.1159.1159,0,0,1,.0586-.11,1.9153,1.9153,0,0,1,.24-.0976.978.978,0,0,0,.371-.208.4793.4793,0,0,0,.1358-.3643v-2.6523a1.0061,1.0061,0,0,0-.1817-.5782,1.4118,1.4118,0,0,0-.4609-.4287,1.1161,1.1161,0,0,0-.5664-.1631,2.5024,2.5024,0,0,0-.5908.0782,1.3144,1.3144,0,0,0-.4873.208.8753.8753,0,0,0-.28.3574,1.7405,1.7405,0,0,0-.0713.5791v2.6387a.4645.4645,0,0,0,.1436.3447,1.0957,1.0957,0,0,0,.3633.1885.7957.7957,0,0,1,.2148.084.14.14,0,0,1,.0713.124.1156.1156,0,0,1-.0586.11.45.45,0,0,1-.2012.0323,2.816,2.816,0,0,1-.5332-.0391,4.3062,4.3062,0,0,0-.4551-.0254c-.1386,0-.3037.0088-.4941.0254a3.1222,3.1222,0,0,1-.5586.0391C538.78,333.1475,538.6943,333.1006,538.6943,333.0049Z" transform="translate(-245.4264 -121.3305)"/><path class="cls-7" d="M546.6689,332.9531a2.3223,2.3223,0,0,1-.8378-.9951,3.4954,3.4954,0,0,1-.2989-1.4883,2.8282,2.8282,0,0,1,.3438-1.3652,2.7068,2.7068,0,0,1,.917-1.0078,2.2547,2.2547,0,0,1,1.248-.37,1.8164,1.8164,0,0,1,1.28.4619,1.5275,1.5275,0,0,1,.501,1.1758.351.351,0,0,1-.3907.4033h-2.7431a.2919.2919,0,0,0-.253.0976.7049.7049,0,0,0-.0712.3838,2.4412,2.4412,0,0,0,.2656,1.1309,2.1347,2.1347,0,0,0,.7285.8252,1.7856,1.7856,0,0,0,1.0078.3056,1.6155,1.6155,0,0,0,1.2734-.5849c.0518-.0694.1-.1045.1436-.1045.0693,0,.1035.0439.1035.13a.923.923,0,0,1-.2334.5468,1.9437,1.9437,0,0,1-.7549.5909,2.3316,2.3316,0,0,1-.9873.2148A2.2324,2.2324,0,0,1,546.6689,332.9531Zm1.2286-3.5888a5.5918,5.5918,0,0,0,.9619-.0645c.0693-.0088.1045-.1045.1045-.2861a.8022.8022,0,0,0-.3311-.6436,1.219,1.219,0,0,0-.7871-.2666,1.1882,1.1882,0,0,0-.5918.1758,1.6311,1.6311,0,0,0-.5.4355.8644.8644,0,0,0-.1953.52c0,.0869.0527.13.1562.13Z" transform="translate(-245.4264 -121.3305)"/><path class="cls-7" d="M551.33,333.167a1.7589,1.7589,0,0,1-.5987-.3447,3.3818,3.3818,0,0,1-.1425-1.04c0-.0771.0556-.1162.1689-.1162.0947,0,.1475.03.1563.0908a1.6451,1.6451,0,0,0,.5127.8907,1.2,1.2,0,0,0,.7734.292.899.899,0,0,0,.6436-.253.8358.8358,0,0,0,.2666-.6308.8547.8547,0,0,0-.2276-.5918,4.1217,4.1217,0,0,0-.8252-.63,3.6519,3.6519,0,0,1-.9551-.7735,1.3226,1.3226,0,0,1-.28-.8388,1.4007,1.4007,0,0,1,.455-1.0723,1.8412,1.8412,0,0,1,1.3008-.4228,2.4853,2.4853,0,0,1,.63.0713,1.2528,1.2528,0,0,1,.4092.1757,1.2917,1.2917,0,0,1,.1758.4483,2.5376,2.5376,0,0,1,.0713.5791c0,.0605-.043.0908-.13.0908a.4021.4021,0,0,1-.1553-.0322.1361.1361,0,0,1-.0918-.085,1.7441,1.7441,0,0,0-.4355-.6631.9065.9065,0,0,0-.6172-.2207.88.88,0,0,0-.585.208.6924.6924,0,0,0-.2471.5586.8183.8183,0,0,0,.1885.54,2.7252,2.7252,0,0,0,.709.5263,4.9188,4.9188,0,0,1,1.1562.8379,1.3454,1.3454,0,0,1,.3389.9434,1.4166,1.4166,0,0,1-.5332,1.1435,2.0871,2.0871,0,0,1-1.3779.4424A2.2576,2.2576,0,0,1,551.33,333.167Z" transform="translate(-245.4264 -121.3305)"/><path class="cls-7" d="M558.4668,332.8945a1.6841,1.6841,0,0,1-.3516-1.1513v-3.0157a.1556.1556,0,0,0-.084-.1562.9361.9361,0,0,0-.332-.0391h-.0781a.13.13,0,0,1-.11-.0771.36.36,0,0,1-.0449-.1826.1435.1435,0,0,1,.0322-.0713.5661.5661,0,0,1,.0586-.0713,5.952,5.952,0,0,0,1.1573-1.04.8129.8129,0,0,1,.1035-.11.1721.1721,0,0,1,.1172-.0459c.1211,0,.1777.0478.1689.1426l-.0654.5859v.0518a.1583.1583,0,0,0,.0781.1562.5572.5572,0,0,0,.2344.0381h1.4814c.0352,0,.0655.0283.0918.085a.4856.4856,0,0,1,.0391.2011.6922.6922,0,0,1-.0391.2276c-.0263.0742-.0566.11-.0918.11h-1.2861a1.049,1.049,0,0,0-.4355.0528c-.0567.0341-.085.1386-.085.3115v2.5615a1.344,1.344,0,0,0,.2207.8252.75.75,0,0,0,.6377.292,2.5243,2.5243,0,0,0,.5781-.0518,1.0015,1.0015,0,0,0,.3838-.1816l.0518-.0264c.06,0,.0908.0606.0908.1826,0,.0518-.0781.1446-.2334.2793a2.4412,2.4412,0,0,1-.5791.3575,1.7073,1.7073,0,0,1-.708.1562A1.2673,1.2673,0,0,1,558.4668,332.8945Z" transform="translate(-245.4264 -121.3305)"/><path class="cls-7" d="M562.8281,332.9531a2.4926,2.4926,0,0,1-.9365-.9365,2.6332,2.6332,0,0,1-.3437-1.3389,2.8668,2.8668,0,0,1,.3828-1.4043,3.1469,3.1469,0,0,1,1.04-1.1181,2.5578,2.5578,0,0,1,1.4238-.4287,2.626,2.626,0,0,1,1.3516.3574,2.6825,2.6825,0,0,1,.9687.9619,2.5025,2.5025,0,0,1,.3575,1.2939,3.21,3.21,0,0,1-.3379,1.4561,2.6481,2.6481,0,0,1-1.001,1.085,2.9781,2.9781,0,0,1-1.5986.41A2.5958,2.5958,0,0,1,562.8281,332.9531Zm2.918-.7676a3.4832,3.4832,0,0,0,.2607-1.5341,3.2255,3.2255,0,0,0-.2343-1.209,2.4474,2.4474,0,0,0-.65-.9492,1.4021,1.4021,0,0,0-.9483-.3633,1.6388,1.6388,0,0,0-.65.1172,1.2542,1.2542,0,0,0-.4941.4023,1.75,1.75,0,0,0-.3252.7344,4.9128,4.9128,0,0,0-.0908.9951,3.2385,3.2385,0,0,0,.2344,1.2285,2.4165,2.4165,0,0,0,.6435.9356,1.5031,1.5031,0,0,0,2.2549-.3575Z" transform="translate(-245.4264 -121.3305)"/><path class="cls-7" d="M509.3145,348.7285c-.0655-.03-.0977-.0674-.0977-.11,0-.1045.0947-.1778.2861-.2217a1.85,1.85,0,0,0,.793-.3115.7524.7524,0,0,0,.26-.6241v-6.0322a1.2166,1.2166,0,0,0-.0655-.4619.3988.3988,0,0,0-.2138-.2139,2.6084,2.6084,0,0,0-.5137-.13c-.2861-.0527-.43-.1386-.43-.2607,0-.0947.126-.1426.3779-.1426q.39,0,.8057.0264l.6494.0127.78-.0127q.4936-.0264.8584-.0264c.251,0,.3769.0479.3769.1426,0,.1221-.1435.208-.4287.2607a3.96,3.96,0,0,0-.8847.2471.4719.4719,0,0,0-.2725.4678v6.123a.8059.8059,0,0,0,.1943.61,1.2421,1.2421,0,0,0,.8067.1826h1.6113a1.67,1.67,0,0,0,.5986-.1045,1.3179,1.3179,0,0,0,.4161-.2334,2.3091,2.3091,0,0,0,.3837-.3965,3.9508,3.9508,0,0,0,.292-.5263,1.8035,1.8035,0,0,1,.13-.2608c.0518-.0859.1045-.13.1563-.13a.128.128,0,0,1,.1172.0713.3453.3453,0,0,1,.039.1631l-.0137.0645q-.1685.624-.24.956a6.7169,6.7169,0,0,0-.11.6953c-.0176.1475-.0782.2207-.1817.2207q-1.3915,0-2.5615-.039-1.3257-.0264-1.8975-.0254c-.2695,0-.5986.0078-.9882.0254s-.6456.03-.7676.039A.6373.6373,0,0,1,509.3145,348.7285Z" transform="translate(-245.4264 -121.3305)"/><path class="cls-7" d="M517.9844,348.5527a2.3189,2.3189,0,0,1-.8379-.9941,3.5048,3.5048,0,0,1-.2988-1.4893,2.8271,2.8271,0,0,1,.3437-1.3642,2.7068,2.7068,0,0,1,.917-1.0078,2.2472,2.2472,0,0,1,1.248-.37,1.8157,1.8157,0,0,1,1.28.461,1.53,1.53,0,0,1,.501,1.1767.3514.3514,0,0,1-.3906.4034h-2.7432a.2941.2941,0,0,0-.2529.0966.7061.7061,0,0,0-.0713.3838,2.4421,2.4421,0,0,0,.2656,1.1309,2.1448,2.1448,0,0,0,.7285.8262,1.7924,1.7924,0,0,0,1.0078.3047,1.6129,1.6129,0,0,0,1.2735-.585c.0517-.0693.1-.1035.1435-.1035.0694,0,.1035.0429.1035.13a.9215.9215,0,0,1-.2333.5459,1.9473,1.9473,0,0,1-.7549.5918,2.3465,2.3465,0,0,1-.9873.2138A2.2239,2.2239,0,0,1,517.9844,348.5527Zm1.2285-3.5879a5.4769,5.4769,0,0,0,.9619-.0654c.0693-.0078.1045-.1035.1045-.2861a.8.8,0,0,0-.3311-.6426,1.2188,1.2188,0,0,0-.7871-.2666,1.1967,1.1967,0,0,0-.5918.1748,1.6434,1.6434,0,0,0-.5.4356.8672.8672,0,0,0-.1953.52c0,.0869.0528.13.1563.13Z" transform="translate(-245.4264 -121.3305)"/><path class="cls-7" d="M522.58,348.7148a1.4625,1.4625,0,0,1-.4092-.4414.972.972,0,0,1-.1631-.5009.9087.9087,0,0,1,.2149-.6368,2.027,2.027,0,0,1,.708-.4423l1.3261-.5459a.73.73,0,0,0,.2989-.1817.7687.7687,0,0,0,.0654-.3379l.0264-.832a.8271.8271,0,0,0-.1954-.5918.7165.7165,0,0,0-.5722-.24,1.2364,1.2364,0,0,0-.39.0644,1.0864,1.0864,0,0,0-.3252.169.4391.4391,0,0,0-.13.3779l.0127.2334c0,.0693-.11.1631-.3311.2793a1.2318,1.2318,0,0,1-.5264.1758.1592.1592,0,0,1-.1045-.0323.1064.1064,0,0,1-.039-.0849.9188.9188,0,0,1,.1367-.4483,1.66,1.66,0,0,1,.3838-.4482,3.9631,3.9631,0,0,1,.9941-.6631,2.2919,2.2919,0,0,1,.9424-.26,1.0052,1.0052,0,0,1,.7734.3311,1.1227,1.1227,0,0,1,.293.8252l-.0654,3.12a.65.65,0,0,0,.1172.4424.42.42,0,0,0,.3506.1689.6919.6919,0,0,0,.4814-.1435.1782.1782,0,0,1,.1035-.0645.14.14,0,0,1,.1045.0391.1375.1375,0,0,1,.0391.1035.342.342,0,0,1-.0391.1367.5.5,0,0,1-.1045.1494,1.8141,1.8141,0,0,1-.4482.3321.9908.9908,0,0,1-.4483.123,1.0609,1.0609,0,0,1-.9492-.6758h-.039a3.3593,3.3593,0,0,1-.8184.5137,2.08,2.08,0,0,1-.8066.1621A.8176.8176,0,0,1,522.58,348.7148Zm1.8457-.76a.4813.4813,0,0,0,.1172-.1953,1.3791,1.3791,0,0,0,.0517-.3379l.0264-.6367v-.0782a.3132.3132,0,0,0-.0264-.1494.0955.0955,0,0,0-.0908-.0459.8935.8935,0,0,0-.26.0654,2.8726,2.8726,0,0,0-.9365.4932.7186.7186,0,0,0-.2851.5078.67.67,0,0,0,.1884.5069.6218.6218,0,0,0,.4483.1816A1.0423,1.0423,0,0,0,524.4258,347.9551Z" transform="translate(-245.4264 -121.3305)"/><path class="cls-7" d="M527.0908,348.6045a.1236.1236,0,0,1,.0654-.1231,1.8189,1.8189,0,0,1,.2334-.0849c.33-.0781.4942-.2422.4942-.4942v-2.7949a1.4608,1.4608,0,0,0-.1162-.63.5649.5649,0,0,0-.416-.3056.1636.1636,0,0,1-.0918-.0655.1753.1753,0,0,1-.0391-.1035.15.15,0,0,1,.0391-.0976.1919.1919,0,0,1,.0781-.0586,6.443,6.443,0,0,0,1.2871-.6367.4917.4917,0,0,1,.1953-.0909q.0645,0,.0645.0909,0,.35-.0391.9746a.0233.0233,0,0,0,.0264.0263,2.9445,2.9445,0,0,1,.7285-.6367,1.4674,1.4674,0,0,1,.7666-.2471.8.8,0,0,1,.4482.1163.3489.3489,0,0,1,.1758.3.7849.7849,0,0,1-.1631.4414.4416.4416,0,0,1-.3437.2343.9009.9009,0,0,1-.3643-.1171c-.0263-.0088-.0849-.03-.1758-.0655a.6964.6964,0,0,0-.24-.0517.8919.8919,0,0,0-.6367.247,1.1315,1.1315,0,0,0-.2608.8448v2.6259a.3269.3269,0,0,0,.17.28,2.0636,2.0636,0,0,0,.5195.2139,1.6184,1.6184,0,0,1,.2275.0908.126.126,0,0,1,.0713.1172c0,.0957-.0869.1435-.26.1435a4.268,4.268,0,0,1-.6114-.039c-.208-.0176-.3808-.0264-.5195-.0264s-.3037.0088-.4941.0264a3.2287,3.2287,0,0,1-.5586.039Q527.0908,348.748,527.0908,348.6045Z" transform="translate(-245.4264 -121.3305)"/><path class="cls-7" d="M531.3682,348.6045a.1244.1244,0,0,1,.0644-.1231,1.85,1.85,0,0,1,.2344-.0849,1.29,1.29,0,0,0,.416-.1621.3746.3746,0,0,0,.1426-.3321v-2.7949a1.7434,1.7434,0,0,0-.0908-.6367.5286.5286,0,0,0-.39-.2988.163.163,0,0,1-.13-.169c0-.0957.0391-.1474.1162-.1562a2.9128,2.9128,0,0,0,.6827-.26,6.1742,6.1742,0,0,0,.6181-.4033.2827.2827,0,0,1,.1426-.0645c.043,0,.0654.03.0654.0909l-.0263.2724c-.0088.0694-.0176.1543-.0264.2539s-.0127.2012-.0127.3057q0,.13.0264.1553a3.32,3.32,0,0,1,.9746-.6563,2.8485,2.8485,0,0,1,1.1181-.2139,1.2992,1.2992,0,0,1,1.0469.52,1.976,1.976,0,0,1,.4219,1.2871v2.7685a.3469.3469,0,0,0,.1367.3194,2.0213,2.0213,0,0,0,.4229.1748,1.1433,1.1433,0,0,1,.2275.0976.153.153,0,0,1,.0713.1368c0,.0781-.0869.1171-.26.1171a3.2321,3.2321,0,0,1-.56-.039,4.7814,4.7814,0,0,0-.4805-.0264q-.208,0-.4942.0264a3.332,3.332,0,0,1-.5722.039c-.1738,0-.26-.039-.26-.1171a.1512.1512,0,0,1,.0713-.1368,1.1223,1.1223,0,0,1,.2275-.0976,2.0673,2.0673,0,0,0,.4229-.1748.3464.3464,0,0,0,.1357-.3194v-2.7294a1.205,1.205,0,0,0-.3183-.8838,1.18,1.18,0,0,0-.8516-.3379,2.2174,2.2174,0,0,0-1.4424.52.4046.4046,0,0,0-.1045.2988v3.1328a.3728.3728,0,0,0,.1436.3321,1.2715,1.2715,0,0,0,.416.1621.839.839,0,0,1,.2276.0849.141.141,0,0,1,.0712.1231c0,.0957-.0869.1435-.26.1435a3.38,3.38,0,0,1-.56-.039c-.19-.0176-.3555-.0264-.4941-.0264s-.3037.0088-.4942.0264a3.22,3.22,0,0,1-.5586.039C531.4541,348.748,531.3682,348.7,531.3682,348.6045Z" transform="translate(-245.4264 -121.3305)"/><path class="cls-7" d="M538.2314,348.6045a.138.138,0,0,1,.0713-.13,1.1014,1.1014,0,0,1,.2276-.0781,1.3061,1.3061,0,0,0,.43-.1748.3766.3766,0,0,0,.13-.3194v-2.82q0-.8583-.5849-.9492c-.0869-.0088-.13-.0654-.13-.1689,0-.0957.0391-.1475.1162-.1563a3.2739,3.2739,0,0,0,1.3652-.6494.3518.3518,0,0,1,.1827-.0918c.0517,0,.0771.0225.0771.0654,0,.0957-.0127.26-.0381.4942-.0088.1035-.0244.2969-.0459.5781s-.0322.51-.0322.6826v3.0156a.3684.3684,0,0,0,.1357.3125,1.2687,1.2687,0,0,0,.4229.1817,1.0765,1.0765,0,0,1,.2275.0781.1361.1361,0,0,1,.0713.13c0,.0957-.0869.1435-.26.1435a3.2749,3.2749,0,0,1-.5459-.039q-.2857-.0264-.5069-.0264c-.1387,0-.3037.0088-.4941.0264a3.2334,3.2334,0,0,1-.56.039C538.3184,348.748,538.2314,348.7,538.2314,348.6045Zm.8389-6.792a.6268.6268,0,0,1-.1885-.4619.6432.6432,0,0,1,.1885-.4746.6284.6284,0,0,1,.4609-.1885.6444.6444,0,0,1,.6631.6631.6271.6271,0,0,1-.1884.4619.644.644,0,0,1-.4747.1885A.6284.6284,0,0,1,539.07,341.8125Z" transform="translate(-245.4264 -121.3305)"/><path class="cls-7" d="M541.417,348.6045a.1245.1245,0,0,1,.0644-.1231,1.85,1.85,0,0,1,.2344-.0849,1.2893,1.2893,0,0,0,.416-.1621.3744.3744,0,0,0,.1426-.3321v-2.7949a1.7434,1.7434,0,0,0-.0908-.6367.5284.5284,0,0,0-.39-.2988.1629.1629,0,0,1-.13-.169c0-.0957.039-.1474.1162-.1562a2.9119,2.9119,0,0,0,.6826-.26,6.1746,6.1746,0,0,0,.6182-.4033.2825.2825,0,0,1,.1425-.0645c.043,0,.0655.03.0655.0909l-.0264.2724c-.0088.0694-.0176.1543-.0264.2539s-.0127.2012-.0127.3057q0,.13.0264.1553a3.32,3.32,0,0,1,.9746-.6563,2.8486,2.8486,0,0,1,1.1182-.2139,1.2992,1.2992,0,0,1,1.0468.52,1.976,1.976,0,0,1,.4219,1.2871v2.7685a.3469.3469,0,0,0,.1367.3194,2.0237,2.0237,0,0,0,.4229.1748,1.1433,1.1433,0,0,1,.2275.0976.153.153,0,0,1,.0713.1368c0,.0781-.0869.1171-.26.1171a3.2334,3.2334,0,0,1-.56-.039,4.7814,4.7814,0,0,0-.4805-.0264c-.1387,0-.3037.0088-.4941.0264a3.3342,3.3342,0,0,1-.5723.039c-.1738,0-.26-.039-.26-.1171a.1512.1512,0,0,1,.0713-.1368,1.1211,1.1211,0,0,1,.2276-.0976,2.0684,2.0684,0,0,0,.4228-.1748.3465.3465,0,0,0,.1358-.3194v-2.7294a1.2051,1.2051,0,0,0-.3184-.8838,1.18,1.18,0,0,0-.8516-.3379,2.217,2.217,0,0,0-1.4423.52.4042.4042,0,0,0-.1045.2988v3.1328a.3727.3727,0,0,0,.1435.3321,1.2725,1.2725,0,0,0,.416.1621.8377.8377,0,0,1,.2276.0849.1409.1409,0,0,1,.0713.1231c0,.0957-.0869.1435-.26.1435a3.38,3.38,0,0,1-.56-.039c-.19-.0176-.3554-.0264-.4941-.0264s-.3037.0088-.4941.0264a3.2214,3.2214,0,0,1-.5586.039C541.5029,348.748,541.417,348.7,541.417,348.6045Z" transform="translate(-245.4264 -121.3305)"/><path class="cls-7" d="M553.6494,343.7168a.195.195,0,0,1,.0518.1426.3627.3627,0,0,1-.13.247.1759.1759,0,0,1-.1035.0655h-.3516c-.2334,0-.3633.0342-.39.1035a1.933,1.933,0,0,0-.0782.5986,2.6557,2.6557,0,0,1-.2861,1.2149,2.4368,2.4368,0,0,1-.7607.9043,1.73,1.73,0,0,1-1.02.3379,1.7872,1.7872,0,0,1-.6885-.13,1.4592,1.4592,0,0,0-.39.2724.4276.4276,0,0,0-.1562.2735q0,.545,1.6894.6494a4.2793,4.2793,0,0,1,1.7813.3906,1.01,1.01,0,0,1,.5849.9229,2.3455,2.3455,0,0,1-.4287,1.3,3.4433,3.4433,0,0,1-1.1054,1.06,2.6121,2.6121,0,0,1-1.3643.4092,3.1923,3.1923,0,0,1-1.749-.416,1.2957,1.2957,0,0,1-.6436-1.1436,1.3574,1.3574,0,0,1,.1045-.5654,1.1526,1.1526,0,0,1,.3242-.41l.5205-.4161.5723-.455a1.9723,1.9723,0,0,1-.8779-.3379.7333.7333,0,0,1-.2666-.5977.6679.6679,0,0,1,.2988-.4814c.208-.1553.3691-.2793.4815-.37a1.2246,1.2246,0,0,0,.247-.253,2.187,2.187,0,0,1-.7539-.7217,1.7421,1.7421,0,0,1-.2861-.956,1.8539,1.8539,0,0,1,.3115-1.0527,2.1654,2.1654,0,0,1,.832-.7344,2.4163,2.4163,0,0,1,1.1182-.2666,3.0527,3.0527,0,0,1,.9365.1816,2.4307,2.4307,0,0,0,.2725.0918,4.0781,4.0781,0,0,0,.4678.1035,2.83,2.83,0,0,0,.4033.0264c.0957,0,.2383-.0088.4287-.0264l.2861-.0127A.1618.1618,0,0,1,553.6494,343.7168Zm-1.4951,5.7588a4.3078,4.3078,0,0,0-1.4951-.2861c-.251-.0176-.4375-.0342-.5586-.0518a2.703,2.703,0,0,0-.7861.7344,1.5467,1.5467,0,0,0-.2276.8515,1.0761,1.0761,0,0,0,.461.878,1.8016,1.8016,0,0,0,1.1376.3574,2.0083,2.0083,0,0,0,1.2354-.3516,1.67,1.67,0,0,0,.5068-.6435,1.9875,1.9875,0,0,0,.1817-.8379A.6994.6994,0,0,0,552.1543,349.4756Zm-.6826-3.1006a2.1924,2.1924,0,0,0,.332-1.2412,1.5055,1.5055,0,0,0-.1758-.7022,1.4758,1.4758,0,0,0-.4609-.539,1.0243,1.0243,0,0,0-.5986-.2022.9049.9049,0,0,0-.5655.208,1.4825,1.4825,0,0,0-.4287.56,1.7392,1.7392,0,0,0-.1631.7412,2.0734,2.0734,0,0,0,.169.8311,1.5672,1.5672,0,0,0,.4551.6181.9816.9816,0,0,0,.624.2276A.96.96,0,0,0,551.4717,346.375Z" transform="translate(-245.4264 -121.3305)"/><text class="cls-2" transform="translate(139.6115 297.7312)">Communi<tspan class="cls-5" x="52.7925" y="0">c</tspan><tspan x="57.8887" y="0">aiton</tspan></text><text class="cls-2" transform="translate(51.6177 213.2136)">Cogniti<tspan class="cls-3" x="38.6357" y="0">v</tspan><tspan x="44.0049" y="0">e </tspan><tspan x="-9.334" y="15.6001">De</tspan><tspan class="cls-3" x="5.5376" y="15.6001">v</tspan><tspan x="10.9067" y="15.6001">elopment</tspan></text></svg>