<?xml version="1.0" encoding="utf-8"?>
<!-- Generator: Adobe Illustrator 25.2.3, SVG Export Plug-In . SVG Version: 6.00 Build 0)  -->
<svg version="1.1" id="Layer_1" xmlns="http://www.w3.org/2000/svg" xmlns:xlink="http://www.w3.org/1999/xlink" x="0px" y="0px"
	 viewBox="0 0 841.89 595.28" style="enable-background:new 0 0 841.89 595.28;" xml:space="preserve">
<style type="text/css">
	.st0{fill:#417067;stroke:#FFFFFF;stroke-miterlimit:10;}
	.st1{fill:none;}
	.st2{fill:#FFFFFF;}
	.st3{font-family:'EBGaramond-Regular';}
	.st4{font-size:13px;}
</style>
<circle class="st0" cx="426.86" cy="302.76" r="180.93"/>
<line class="st0" x1="426.86" y1="121.83" x2="426.86" y2="302.76"/>
<line class="st0" x1="426.86" y1="302.76" x2="254.81" y2="246.75"/>
<line class="st0" x1="426.86" y1="302.76" x2="320.69" y2="449.27"/>
<line class="st0" x1="426.86" y1="302.76" x2="533.53" y2="448.9"/>
<line class="st0" x1="426.99" y1="302.95" x2="598.35" y2="244.87"/>
<rect x="299.3" y="212.3" class="st1" width="112.09" height="59.78"/>
<text transform="matrix(1 0 0 1 302.4256 221.4482)"><tspan x="0" y="0" class="st2 st3 st4">Social and Emotional</tspan><tspan x="18.89" y="15.6" class="st2 st3 st4">Development </tspan></text>
<rect x="432.08" y="212.3" class="st1" width="127.09" height="59.78"/>
<text transform="matrix(1 0 0 1 440.0214 221.4482)"><tspan x="0" y="0" class="st2 st3 st4">Physical Development</tspan><tspan x="27.65" y="15.6" class="st2 st3 st4">and Health</tspan></text>
<rect x="479.05" y="323.96" class="st1" width="104.39" height="59.78"/>
<text transform="matrix(1 0 0 1 494.832 333.1084)"><tspan x="0" y="0" class="st2 st3 st4">Approaches to  </tspan><tspan x="14.03" y="15.6" class="st2 st3 st4">Learning</tspan></text>
<rect x="374.67" y="409.91" class="st1" width="104.39" height="59.78"/>
<text transform="matrix(1 0 0 1 384.9407 419.0616)" class="st2 st3 st4">Communicaiton</text>
<rect x="269.39" y="325.39" class="st1" width="104.39" height="59.78"/>
<text transform="matrix(1 0 0 1 296.8815 334.5441)"><tspan x="0" y="0" class="st2 st3 st4">Cognitive </tspan><tspan x="-9.33" y="15.6" class="st2 st3 st4">Development</tspan></text>
</svg>
