<svg id="Layer_1" data-name="Layer 1" xmlns="http://www.w3.org/2000/svg" width="662.6454" height="308.6134" viewBox="0 0 662.6454 308.6134"><defs><style>.cls-1{fill:#fff;stroke:#417067;stroke-miterlimit:10;}.cls-2{font-size:17px;}.cls-18,.cls-2,.cls-5{font-family:EBGaramond-Regular, EB Garamond;}.cls-3{letter-spacing:-0.015em;}.cls-4{letter-spacing:-0.025em;}.cls-5{font-size:12px;fill:#231f20;}.cls-6{letter-spacing:-0.1em;}.cls-7{letter-spacing:-0.02em;}.cls-8{letter-spacing:-0.05em;}.cls-9{letter-spacing:0em;}.cls-10{letter-spacing:-0.025em;}.cls-11{letter-spacing:-0.01em;}.cls-12{letter-spacing:-0.01em;}.cls-13{letter-spacing:-0.015em;}.cls-14{letter-spacing:-0.04em;}.cls-15{letter-spacing:-0.025em;}.cls-16{letter-spacing:0em;}.cls-17{letter-spacing:-0.04em;}.cls-18{font-size:9px;fill:#417067;}.cls-19{letter-spacing:-0.105em;}.cls-20{letter-spacing:-0.015em;}.cls-21{letter-spacing:-0.01em;}.cls-22{letter-spacing:-0.1em;}</style></defs><rect class="cls-1" x="0.5" y="0.5" width="268.5878" height="42.408"/><rect class="cls-1" x="144.8233" y="0.5" width="392.8522" height="42.408"/><rect class="cls-1" x="0.5" y="42.908" width="268.5878" height="57.1698"/><rect class="cls-1" x="144.8233" y="42.908" width="392.8522" height="57.1698"/><rect class="cls-1" x="0.5" y="100.0778" width="268.5878" height="57.1698"/><rect class="cls-1" x="144.8233" y="100.0778" width="392.8522" height="57.1698"/><rect class="cls-1" x="0.5" y="157.2476" width="268.5878" height="57.1698"/><rect class="cls-1" x="144.8233" y="157.2476" width="392.8522" height="57.1698"/><rect class="cls-1" x="0.5" y="214.4175" width="268.5878" height="57.1698"/><rect class="cls-1" x="144.8233" y="214.4175" width="392.8522" height="57.1698"/><text class="cls-2" transform="translate(286.7686 27.2719)">Des<tspan class="cls-3" x="24.9385" y="0">c</tspan><tspan x="31.6025" y="0">ription</tspan></text><text class="cls-2" transform="translate(19.1737 27.2719)">Readiness Le<tspan class="cls-4" x="84.8467" y="0">v</tspan><tspan x="91.8677" y="0">el</tspan></text><text class="cls-5" transform="translate(14.3621 74.6019)">1: Not <tspan class="cls-6" x="32.7471" y="0">Y</tspan><tspan x="38.4834" y="0">et Ready</tspan></text><text class="cls-5" transform="translate(14.3621 131.7496)">2: Appr<tspan class="cls-7" x="35.9028" y="0">o</tspan><tspan x="41.603" y="0">aching Ready</tspan></text><text class="cls-5" transform="translate(14.3621 188.7829)">3: Ready and Practicing</text><text class="cls-5" transform="translate(15.4662 242.6909)">4: Ready and <tspan class="cls-8" x="62.4824" y="0">P</tspan><tspan class="cls-9" x="68.5068" y="0">er</tspan><tspan class="cls-10" x="77.1943" y="0">f</tspan><tspan x="80.7104" y="0">orming</tspan><tspan x="0" y="14.4004" xml:space="preserve"> Independently </tspan></text><text class="cls-5" transform="translate(155.7052 61.2856)">Student has demonstrat<tspan class="cls-11" x="108.7427" y="0">e</tspan><tspan x="113.3027" y="0">d a beginning le</tspan><tspan class="cls-10" x="185.1104" y="0">v</tspan><tspan x="190.0664" y="0">el of kindergarten readiness on most </tspan><tspan x="0" y="14.4004">items. Student m</tspan><tspan class="cls-11" x="78.0234" y="14.4004">a</tspan><tspan x="82.6914" y="14.4004">y n</tspan><tspan class="cls-12" x="96.6831" y="14.4004">ee</tspan><tspan x="105.8037" y="14.4004">d intensi</tspan><tspan class="cls-10" x="145.1514" y="14.4004">v</tspan><tspan x="150.1074" y="14.4004">e supports a</tspan><tspan class="cls-13" x="204.623" y="14.4004">c</tspan><tspan x="209.3271" y="14.4004">ross de</tspan><tspan class="cls-10" x="240.1787" y="14.4004">v</tspan><tspan x="245.1348" y="14.4004">elopment areas to reach </tspan><tspan x="0" y="28.8003">kindergarten readiness. </tspan></text><text class="cls-5" transform="translate(155.7052 118.3184)">Student has demonstrat<tspan class="cls-11" x="108.7427" y="0">e</tspan><tspan x="113.3027" y="0">d at least a practicing le</tspan><tspan class="cls-10" x="218.2656" y="0">v</tspan><tspan x="223.2217" y="0">el of kindergarten readiness on</tspan><tspan x="0" y="14.4004">ma</tspan><tspan class="cls-14" x="14.124" y="14.4004">n</tspan><tspan x="19.98" y="14.4004">y items but m</tspan><tspan class="cls-12" x="82.6436" y="14.4004">a</tspan><tspan x="87.3115" y="14.4004">y n</tspan><tspan class="cls-12" x="101.3027" y="14.4004">ee</tspan><tspan x="110.4233" y="14.4004">d intensi</tspan><tspan class="cls-10" x="149.771" y="14.4004">v</tspan><tspan x="154.7271" y="14.4004">e support in some de</tspan><tspan class="cls-10" x="249.2402" y="14.4004">v</tspan><tspan x="254.1963" y="14.4004">elopment areas to reach</tspan><tspan x="0" y="28.8003">kindergarten readiness.</tspan></text><text class="cls-5" transform="translate(159.6833 189.8519)">Student on <tspan class="cls-7" x="53.6035" y="0">a</tspan><tspan class="cls-15" x="58.1519" y="0">v</tspan><tspan class="cls-16" x="63.1074" y="0">erage is practicing on all items of kindergarten readiness</tspan></text><text class="cls-5" transform="translate(155.7052 243.0092)">Student is per<tspan class="cls-10" x="63.0596" y="0">f</tspan><tspan x="66.5757" y="0">orming independently on ma</tspan><tspan class="cls-17" x="200.2188" y="0">n</tspan><tspan x="206.0742" y="0">y items of kindergarten readiness. </tspan></text><text class="cls-18" transform="translate(1.0453 290.6108)"><tspan class="cls-19">T</tspan><tspan x="5.085" y="0">a</tspan><tspan class="cls-20" x="8.6758" y="0">b</tspan><tspan x="13.1753" y="0">le adapt</tspan><tspan class="cls-21" x="39.8774" y="0">e</tspan><tspan x="43.2974" y="0">d from </tspan><tspan class="cls-22" x="68.7759" y="0">V</tspan><tspan x="73.9238" y="0">ermont’s 2020-2021 R4K!S Report</tspan></text></svg>